<?xml version="1.0" encoding="UTF-8" standalone="no"?>
<!-- Created with Inkscape (http://www.inkscape.org/) -->
<svg
   xmlns:dc="http://purl.org/dc/elements/1.1/"
   xmlns:cc="http://web.resource.org/cc/"
   xmlns:rdf="http://www.w3.org/1999/02/22-rdf-syntax-ns#"
   xmlns:svg="http://www.w3.org/2000/svg"
   xmlns="http://www.w3.org/2000/svg"
   xmlns:sodipodi="http://sodipodi.sourceforge.net/DTD/sodipodi-0.dtd"
   xmlns:inkscape="http://www.inkscape.org/namespaces/inkscape"
   id="svg1887"
   sodipodi:version="0.32"
   inkscape:version="0.44.1"
   width="1000"
   height="520"
   version="1.0"
   sodipodi:docbase="D:\Afbeeldingen\Eigen Werk\Grafisch"
   sodipodi:docname="long_tail.svg">
  <metadata
     id="metadata1892">
    <rdf:RDF>
      <cc:Work
         rdf:about="">
        <dc:format>image/svg+xml</dc:format>
        <dc:type
           rdf:resource="http://purl.org/dc/dcmitype/StillImage" />
      </cc:Work>
    </rdf:RDF>
  </metadata>
  <defs
     id="defs1890" />
  <sodipodi:namedview
     inkscape:window-height="750"
     inkscape:window-width="1280"
     inkscape:pageshadow="2"
     inkscape:pageopacity="0.0"
     guidetolerance="10.0"
     gridtolerance="10.0"
     objecttolerance="10.0"
     borderopacity="1.0"
     bordercolor="#666666"
     pagecolor="#ffffff"
     id="base"
     width="1000px"
     height="520px"
     inkscape:zoom="0.35919193"
     inkscape:cx="372.04724"
     inkscape:cy="526.18109"
     inkscape:window-x="-4"
     inkscape:window-y="-4"
     inkscape:current-layer="svg1887" />
  <g
     transform="matrix(1.266263,0,0,1.350058,-0.699168,-6.966066)"
     id="g2019">
    <g
       transform="matrix(1.055449,0,0,1.011534,-56.0384,16.70264)"
       id="Layer_4">
      <path
         style="fill:#ccff42"
         id="path1939"
         d="M 181.941,358.342 L 71.983,358.342 L 71.983,0.107 L 82.983,0.107 C 82.983,0.107 91.394,156.175 100.983,199.342 C 105.649,220.347 122.34,261.845 181.941,291.892" />
      <path
         style="fill:#ffff3e"
         id="path1941"
         d="M 181.941,358.342 L 781.983,358.342 L 782.983,347.342 C 782.983,347.342 471.983,340.342 306.983,324.342 C 252.072,319.017 211.669,306.879 181.941,291.892 L 181.941,358.342 z " />
    </g>
    <g
       transform="matrix(1.055449,0,0,1.011534,-56.0384,16.70264)"
       id="Layer_2">
      <polyline
         style="fill:none;stroke:black;stroke-width:3"
         id="polyline1944"
         points="71.983,0.107 71.983,358.342 781.983,358.342 " />
      <path
         style="fill:none;stroke:#909090;stroke-width:4"
         id="path1946"
         d="M 82.983,0.107 C 82.983,0.107 91.394,156.175 100.983,199.342 C 107.976,230.823 141.983,308.342 306.983,324.342 C 471.983,340.342 782.983,347.342 782.983,347.342" />
    </g>
  </g>
</svg>
